<svg width="105" height="82" viewBox="0 0 105 82" fill="none" xmlns="http://www.w3.org/2000/svg">
<path d="M80.5324 0H24.4676C10.9765 0 0 10.9623 0 24.4374V77.5736C0 79.2304 0.914841 80.7352 2.38644 81.4992C3.03211 81.8344 3.73306 82 4.43161 82C5.2327 82 6.03058 81.7816 6.73634 81.3504L26.7747 71.2465H80.5324C94.0235 71.2465 105 60.2842 105 46.8091V24.4374C105 10.9623 94.0235 0 80.5324 0V0ZM98.8477 46.8091C98.8477 56.8962 90.6317 65.1026 80.5324 65.1026H26.3333C25.513 65.1026 24.7215 65.3258 24.027 65.7498L6.15234 74.7625V24.4374C6.15234 14.3503 14.3683 6.14394 24.4676 6.14394H80.5324C90.6317 6.14394 98.8477 14.3503 98.8477 24.4374V46.8091Z" fill="#534A4A"/>
<path d="M81.9132 14H23.0868C21.3826 14 20 15.343 20 17C20 18.657 21.3826 20 23.0868 20H81.9132C83.6174 20 85 18.657 85 17C85 15.343 83.6174 14 81.9132 14Z" fill="#534A4A"/>
<path d="M81.9132 33H23.0868C21.3826 33 20 34.3438 20 36C20 37.657 21.3826 39 23.0868 39H81.9132C83.6174 39 85 37.657 85 36C85 34.3438 83.6174 33 81.9132 33Z" fill="#534A4A"/>
<path d="M81.0418 52H62.9582C61.3243 52 60 53.1191 60 54.5C60 55.8802 61.3243 57 62.9582 57H81.0418C82.675 57 84 55.8802 84 54.5C84 53.1191 82.675 52 81.0418 52Z" fill="#534A4A"/>
</svg>
