<svg width="107" height="95" viewBox="0 0 107 95" fill="none" xmlns="http://www.w3.org/2000/svg">
<path d="M98.1131 8.8827C86.2647 -2.94189 66.986 -2.94189 55.1368 8.8827L53.5 10.5162L51.8632 8.8827C46.1235 3.15453 38.4924 0 30.3747 0C22.2578 0 14.6266 3.15453 8.8869 8.8827C-2.9623 20.7073 -2.9623 39.9481 8.8869 51.7727L51.2828 94.0835C51.8951 94.6945 52.6975 95 53.5 95C54.3025 95 55.1049 94.6945 55.7172 94.0835L98.1131 51.7727C109.962 39.9481 109.962 20.7073 98.1131 8.8827ZM93.6787 47.3472L53.5 87.4453L13.3213 47.3472C3.91783 37.9627 3.91783 22.6927 13.3213 13.3082C18.0234 8.61548 24.1982 6.26995 30.3747 6.26995C36.5503 6.26995 42.7276 8.61629 47.4289 13.3082L51.2828 17.1552C51.8714 17.7418 52.6681 18.0717 53.5 18.0717C54.3319 18.0717 55.1294 17.7418 55.7172 17.1552L59.5711 13.3082C64.1263 8.76212 70.1836 6.25854 76.6253 6.25854C83.0671 6.25854 89.1235 8.76212 93.6787 13.3082C103.083 22.6927 103.083 37.9627 93.6787 47.3472Z" fill="#534A4A"/>
</svg>
