<svg width="17" height="17" viewBox="0 0 17 17" fill="none" xmlns="http://www.w3.org/2000/svg">
<path d="M12.6157 8.94255C12.6233 8.93122 12.6299 8.91944 12.6368 8.90782C12.6432 8.89712 12.6499 8.88676 12.6557 8.87577C12.6621 8.86375 12.6676 8.8515 12.6733 8.83928C12.6787 8.82793 12.6844 8.81677 12.6891 8.80512C12.6941 8.79316 12.6981 8.78095 12.7024 8.76883C12.7069 8.75644 12.7117 8.74422 12.7155 8.73154C12.7192 8.71925 12.7219 8.70684 12.7251 8.69442C12.7283 8.6816 12.7319 8.66899 12.7345 8.6559C12.7373 8.64139 12.7391 8.62685 12.7412 8.61224C12.7427 8.60109 12.7448 8.59013 12.7459 8.57884C12.7512 8.52644 12.7512 8.47372 12.7459 8.42132C12.7448 8.41 12.7427 8.39901 12.7411 8.38779C12.7391 8.37328 12.7373 8.35867 12.7345 8.34429C12.7319 8.33118 12.7283 8.31853 12.725 8.30561C12.7219 8.29329 12.7192 8.28091 12.7155 8.26869C12.7117 8.25594 12.7068 8.24362 12.7024 8.23114C12.6981 8.21912 12.6942 8.20703 12.6892 8.19518C12.6843 8.18339 12.6786 8.17213 12.6732 8.16065C12.6675 8.14859 12.6621 8.13641 12.6558 8.12459C12.6499 8.11343 12.643 8.10281 12.6366 8.09198C12.6297 8.08056 12.6232 8.06894 12.6158 8.05778C12.6076 8.04556 12.5985 8.03404 12.5897 8.02235C12.5829 8.01332 12.5766 8.00403 12.5694 7.99519C12.5526 7.97481 12.535 7.95515 12.5163 7.93649L10.1259 5.54603C9.81474 5.23482 9.31019 5.23482 8.99891 5.54603C8.6877 5.85724 8.6877 6.36177 8.99891 6.67298L10.0293 7.70334H0.796875C0.356801 7.70334 0 8.06007 0 8.50021C0 8.94029 0.356801 9.29709 0.796875 9.29709H10.0291L8.99888 10.3273C8.68766 10.6386 8.68766 11.1431 8.99888 11.4543C9.15447 11.6099 9.35843 11.6877 9.56233 11.6877C9.76627 11.6877 9.97023 11.61 10.1258 11.4543L12.5163 9.06384C12.5349 9.04524 12.5525 9.02565 12.5692 9.00523C12.5767 8.9962 12.5832 8.98664 12.5901 8.97741C12.5988 8.96575 12.6077 8.9545 12.6157 8.94255Z" fill="#64C37D"/>
<path d="M16.2031 15.6719H6.10938C5.6693 15.6719 5.3125 15.3151 5.3125 14.875V11.6874C5.3125 11.2473 5.6693 10.8906 6.10938 10.8906C6.54945 10.8906 6.90625 11.2473 6.90625 11.6874V14.0781H15.4062V2.92188H6.90625V5.3125C6.90625 5.75257 6.54945 6.10938 6.10938 6.10938C5.6693 6.10938 5.3125 5.75257 5.3125 5.3125V2.125C5.3125 1.68486 5.6693 1.32812 6.10938 1.32812H16.2031C16.6432 1.32812 17 1.68486 17 2.125V14.875C17 15.3151 16.6432 15.6719 16.2031 15.6719Z" fill="#A9A8AE"/>
</svg>
