<svg width="17" height="17" viewBox="0 0 17 17" fill="none" xmlns="http://www.w3.org/2000/svg">
<path d="M15.8665 1.1333H0.283203V13.0333H15.8665V1.1333Z" fill="#ECF0F1"/>
<path d="M16.15 13.3166H0V0.849976H16.15V13.3166ZM0.566667 12.75H15.5833V1.41664H0.566667V12.75Z" fill="#545E73"/>
<path d="M14.7332 2.2666H1.4165V11.8999H14.7332V2.2666Z" fill="#545E73"/>
<path d="M15.0166 12.1833H1.1333V1.98328H15.0166V12.1833ZM1.69997 11.6166H14.45V2.54994H1.69997V11.6166Z" fill="#ECF0F1"/>
<path d="M4.25012 5.98913C4.96508 5.98913 5.54467 5.40954 5.54467 4.69457C5.54467 3.97961 4.96508 3.40002 4.25012 3.40002C3.53516 3.40002 2.95557 3.97961 2.95557 4.69457C2.95557 5.40954 3.53516 5.98913 4.25012 5.98913Z" fill="#F3D55A"/>
<path d="M14.4498 9.09808L14.1665 8.78329L10.7665 5.66663L7.7915 8.92496L9.34502 10.4785L10.4832 11.6166H14.4498V9.09808Z" fill="#11A085"/>
<path d="M1.7002 11.6166H10.4835L9.34538 10.4785L6.23835 7.37146L1.7002 11.3333V11.6166Z" fill="#26B999"/>
<path d="M16.9999 9.91663H10.7666V16.15H16.9999V9.91663Z" fill="#48A0DC"/>
<path d="M14.1668 11.6166H13.6001V16.1499H14.1668V11.6166Z" fill="white"/>
<path d="M15.3829 13.517L13.8832 12.0173L12.3835 13.517L11.9829 13.1164L13.8832 11.2161L15.7835 13.1164L15.3829 13.517Z" fill="white"/>
</svg>
