<svg width="18" height="21" viewBox="0 0 18 21" fill="none" xmlns="http://www.w3.org/2000/svg">
<g clip-path="url(#clip0)">
<path d="M10.7679 17.0625H11.7321C11.86 17.0625 11.9827 17.0106 12.0731 16.9183C12.1635 16.826 12.2143 16.7008 12.2143 16.5703V7.71094C12.2143 7.5804 12.1635 7.45521 12.0731 7.36291C11.9827 7.27061 11.86 7.21875 11.7321 7.21875H10.7679C10.64 7.21875 10.5173 7.27061 10.4269 7.36291C10.3365 7.45521 10.2857 7.5804 10.2857 7.71094V16.5703C10.2857 16.7008 10.3365 16.826 10.4269 16.9183C10.5173 17.0106 10.64 17.0625 10.7679 17.0625ZM17.3571 3.28125H14.046L12.68 0.955664C12.5085 0.664049 12.266 0.422744 11.976 0.255264C11.6861 0.0877826 11.3586 -0.000161741 11.0254 2.23308e-07H6.9746C6.64158 -2.00472e-05 6.31422 0.0879916 6.02441 0.255466C5.73461 0.42294 5.49222 0.664169 5.32085 0.955664L3.95397 3.28125H0.642857C0.472361 3.28125 0.308848 3.35039 0.188289 3.47346C0.0677294 3.59653 0 3.76345 0 3.9375L0 4.59375C0 4.7678 0.0677294 4.93472 0.188289 5.05779C0.308848 5.18086 0.472361 5.25 0.642857 5.25H1.28571V19.0312C1.28571 19.5534 1.4889 20.0542 1.85058 20.4234C2.21226 20.7926 2.7028 21 3.21429 21H14.7857C15.2972 21 15.7877 20.7926 16.1494 20.4234C16.5111 20.0542 16.7143 19.5534 16.7143 19.0312V5.25H17.3571C17.5276 5.25 17.6912 5.18086 17.8117 5.05779C17.9323 4.93472 18 4.7678 18 4.59375V3.9375C18 3.76345 17.9323 3.59653 17.8117 3.47346C17.6912 3.35039 17.5276 3.28125 17.3571 3.28125ZM6.90429 2.08811C6.92577 2.0516 6.95617 2.02141 6.99251 2.00049C7.02885 1.97957 7.06989 1.96863 7.11161 1.96875H10.8884C10.93 1.9687 10.971 1.97967 11.0073 2.00059C11.0435 2.02151 11.0739 2.05166 11.0953 2.08811L11.7968 3.28125H6.20317L6.90429 2.08811ZM14.7857 19.0312H3.21429V5.25H14.7857V19.0312ZM6.26786 17.0625H7.23214C7.36001 17.0625 7.48265 17.0106 7.57307 16.9183C7.66349 16.826 7.71429 16.7008 7.71429 16.5703V7.71094C7.71429 7.5804 7.66349 7.45521 7.57307 7.36291C7.48265 7.27061 7.36001 7.21875 7.23214 7.21875H6.26786C6.13998 7.21875 6.01735 7.27061 5.92693 7.36291C5.83651 7.45521 5.78571 7.5804 5.78571 7.71094V16.5703C5.78571 16.7008 5.83651 16.826 5.92693 16.9183C6.01735 17.0106 6.13998 17.0625 6.26786 17.0625Z" fill="#FF5B5B"/>
</g>
<defs>
<clipPath id="clip0">
<rect width="18" height="21" fill="white"/>
</clipPath>
</defs>
</svg>
