<svg width="17" height="17" viewBox="0 0 17 17" fill="none" xmlns="http://www.w3.org/2000/svg">
<g clip-path="url(#clip0)">
<path d="M12.6523 4.34742L9.04655 0.74156C9.02845 0.723464 9.00946 0.706431 8.98967 0.690194C8.98107 0.683122 8.9718 0.676847 8.96287 0.67014C8.95158 0.661706 8.94053 0.652974 8.92897 0.645204C8.91815 0.637999 8.90676 0.631657 8.89564 0.62495C8.88518 0.618675 8.87488 0.612067 8.86416 0.606356C8.85277 0.60028 8.84098 0.595067 8.82923 0.589522C8.81804 0.584276 8.80699 0.578665 8.7957 0.57395C8.78437 0.569269 8.77265 0.56545 8.76107 0.561267C8.74881 0.556851 8.73666 0.552136 8.72424 0.548384C8.71275 0.544864 8.7009 0.542308 8.68915 0.539353C8.67643 0.536165 8.66381 0.532612 8.65096 0.530022C8.63735 0.5273 8.6234 0.52564 8.60959 0.523681C8.5984 0.522087 8.58738 0.519962 8.57622 0.518833C8.55112 0.516409 8.52569 0.515015 8.49992 0.515015C8.47416 0.515015 8.44872 0.516409 8.42359 0.518866C8.41273 0.519962 8.40191 0.522021 8.39102 0.523548C8.3769 0.525573 8.36269 0.527267 8.34882 0.529989C8.33636 0.532446 8.32408 0.535966 8.31173 0.539054C8.29961 0.542108 8.28732 0.544765 8.27547 0.548384C8.26345 0.552036 8.25166 0.556618 8.23988 0.560835C8.22792 0.565118 8.21577 0.569069 8.20418 0.573917C8.19323 0.578466 8.18253 0.583911 8.17174 0.588958C8.15962 0.594669 8.14737 0.600081 8.13562 0.606356C8.12546 0.611769 8.11563 0.618144 8.1057 0.624087C8.09395 0.631026 8.08209 0.637733 8.07077 0.64527C8.06001 0.652542 8.04965 0.66071 8.0391 0.668612C8.0294 0.675817 8.01947 0.682624 8.01008 0.690261C7.99158 0.705468 7.97362 0.721737 7.95625 0.738937C7.95532 0.739767 7.95446 0.740497 7.95357 0.741294L4.34741 4.34739C4.04569 4.64917 4.04562 5.13842 4.34741 5.44017C4.64912 5.74195 5.13844 5.74188 5.44019 5.44023L7.72722 3.15333V12.6211C7.72722 13.0479 8.0732 13.3938 8.49996 13.3938C8.92672 13.3938 9.27269 13.0479 9.27269 12.6211V3.15337L11.5596 5.44023C11.7104 5.59111 11.9082 5.66658 12.1059 5.66658C12.3037 5.66658 12.5015 5.59111 12.6523 5.44023C12.9541 5.13845 12.9541 4.64917 12.6523 4.34742Z" fill="#64C37D"/>
<path d="M16.2273 8.24243C15.8005 8.24243 15.4545 8.58841 15.4545 9.01517V14.9394H1.54544V9.01517C1.54544 8.58841 1.19946 8.24243 0.772703 8.24243C0.345943 8.24243 0 8.58841 0 9.01517V15.7121C0 16.1389 0.345977 16.4849 0.772736 16.4849H16.2273C16.6541 16.4849 17 16.1389 17 15.7121V9.01517C17 8.58841 16.654 8.24243 16.2273 8.24243Z" fill="#A9A8AE"/>
</g>
<defs>
<clipPath id="clip0">
<rect width="17" height="17" fill="white"/>
</clipPath>
</defs>
</svg>
